<mxfile host="app.diagrams.net" modified="2023-06-30T02:21:57.963Z" agent="Mozilla/5.0 (Macintosh; Intel Mac OS X 10_15_7) AppleWebKit/537.36 (KHTML, like Gecko) Chrome/111.0.0.0 Safari/537.36" version="21.5.2" etag="0nwaNG_o7B1DQ04788lQ" type="github">
  <diagram name="Page-1" id="UaAxi2kf_aMlE0EG1n3d">
    <mxGraphModel>
      <root>
        <mxCell id="0" />
        <mxCell id="1" parent="0" />
      </root>
    </mxGraphModel>
  </diagram>
</mxfile>
